<svg width="601" height="416" viewBox="0 0 601 416" fill="none" xmlns="http://www.w3.org/2000/svg">
<path d="M518.275 342.351C518.275 343.03 517.017 343.643 514.472 343.925H508.003C505.46 343.643 504.201 343.03 504.201 342.334C504.201 341.638 505.46 341.042 508.003 340.743H514.472C517.017 341.042 518.275 341.638 518.275 342.351ZM546.421 342.175C546.472 342.51 546.203 342.855 545.558 343.178C544.91 343.509 543.86 343.814 542.621 343.925H536.152C533.608 343.643 532.35 343.03 532.35 342.334C532.35 341.638 533.608 341.042 536.152 340.743H542.621C543.929 340.921 544.776 341.066 545.391 341.29C546.009 341.521 546.369 341.823 546.421 342.175ZM559.812 320.604C560.485 320.604 561.093 321.874 561.373 324.441C561.405 326.509 561.404 329.081 560.687 331.349C559.591 333.995 558.23 334.77 557.682 334.423C557.06 334.054 557.285 332.745 557.657 330.462C558.242 328.549 558.244 326.709 558.217 324.441C558.514 321.874 559.105 320.604 559.812 320.604ZM559.812 292.223C560.485 292.223 561.093 293.492 561.373 296.059V302.581C561.093 305.144 560.485 306.414 559.795 306.414C559.105 306.414 558.514 305.144 558.217 302.581V296.059C558.514 293.492 559.105 292.223 559.812 292.223ZM559.812 263.843C560.485 263.843 561.093 265.112 561.373 267.678V274.2C561.093 276.764 560.485 278.033 559.795 278.033C559.105 278.033 558.514 276.764 558.217 274.2V267.678C558.514 265.112 559.105 263.843 559.812 263.843ZM552.075 238.219C552.377 237.663 553.938 237.672 556.182 239.437C557.877 241.11 559.235 243.138 560.117 245.364C560.876 248.131 560.282 249.588 559.641 249.657C558.923 249.753 558.297 248.584 557.191 246.555C556.473 244.737 555.36 243.078 553.972 241.708C552.531 239.897 551.703 238.865 552.075 238.219ZM524.305 236.017C524.305 235.338 525.564 234.724 528.109 234.443H534.577C537.121 234.724 538.379 235.338 538.379 236.034C538.379 236.73 537.121 237.326 534.577 237.625H528.109C525.564 237.326 524.305 236.73 524.305 236.017ZM496.488 238.05C496.158 237.506 496.945 236.146 499.586 235.073C501.862 234.373 504.371 234.425 506.427 234.443C508.971 234.724 510.231 235.338 510.231 236.034C510.231 236.73 508.971 237.326 506.427 237.625C504.182 237.61 502.314 237.567 500.426 238.139C498.155 238.487 496.854 238.696 496.488 238.05ZM488.461 263.491C487.787 263.491 487.179 262.222 486.899 259.655V253.134C487.002 251.888 487.35 250.796 487.67 250.164C487.997 249.518 488.344 249.253 488.684 249.31C489.024 249.366 489.317 249.732 489.539 250.358C489.771 250.998 489.873 251.813 490.055 253.134V259.655C489.759 262.222 489.167 263.491 488.461 263.491ZM488.461 291.872C487.787 291.872 487.179 290.603 486.899 288.036V281.514C487.179 278.951 487.787 277.681 488.477 277.681C489.167 277.681 489.759 278.951 490.055 281.514V288.036C489.759 290.603 489.167 291.872 488.461 291.872ZM488.461 320.252C487.787 320.252 487.179 318.983 486.899 316.416V309.895C487.179 307.331 487.787 306.062 488.477 306.062C489.167 306.062 489.759 307.331 490.055 309.895V316.416C489.759 318.983 489.167 320.252 488.461 320.252ZM501.495 342.117C501.41 342.744 499.947 343.297 497.229 342.445C495.053 341.486 493.087 340.057 491.481 338.297C489.805 335.986 489.844 334.413 490.42 334.119C491.056 333.771 492.054 334.636 493.801 336.141C495.115 337.582 496.724 338.752 498.502 339.533C500.479 340.712 501.616 341.38 501.495 342.117Z" fill="#BBCAEA"/>
<path d="M313.915 226.367C313.715 226.507 313.455 226.561 313.138 226.584C311.621 230.564 294.833 274.319 274.435 300.146C264.106 313.218 252.862 321.691 242.196 318.059C209.517 306.879 196.951 284.855 196.951 284.855L231.25 244.877C231.25 244.877 237.132 250.287 243.637 255.824C251.165 262.224 259.509 268.768 260.549 267.272C262.199 264.937 288.6 227.76 297.174 216.224C297.174 216.224 297.174 216.224 297.178 216.208C296.997 212.203 296.729 201.978 298.197 200.542C300.067 198.755 302.944 207.054 302.844 209.479C302.743 211.904 326.349 178.583 327.869 192.025C329.39 205.467 316.411 224.691 313.915 226.367Z" fill="#FEC9AC"/>
<path opacity="0.5" d="M273.283 301.574C263.266 313.694 252.285 321.487 241.71 317.934C209.311 306.999 196.613 286.169 196.613 286.169L229.921 249.14C229.921 249.14 235.799 254.294 242.293 259.577C244.495 268.612 247.864 277.332 253.153 284.901C258.205 292.129 265.26 298.197 273.283 301.574Z" fill="#FFAB90"/>
<path d="M53.9355 315.115C54.6027 315.452 55.2699 315.725 55.937 315.925L53.6332 338.605L52.1765 377.132H211.189L205.457 311.878L204.018 302.619C205.155 303.397 206.989 303.838 209.22 303.586C209.314 303.576 209.408 303.565 209.501 303.554C209.647 303.533 209.804 303.502 209.96 303.481C210.148 303.45 210.346 303.407 210.544 303.365C210.585 303.355 210.627 303.344 210.669 303.334C210.909 303.281 211.148 303.218 211.388 303.145C211.815 303.019 212.253 302.871 212.702 302.693C212.764 302.672 212.837 302.651 212.91 302.619C213.16 302.514 213.41 302.398 213.671 302.283C213.806 302.22 213.942 302.157 214.077 302.083C214.213 302.02 214.338 301.946 214.484 301.873C214.63 301.799 214.765 301.726 214.911 301.642C215.172 301.495 215.443 301.326 215.714 301.158C216.006 300.979 216.308 300.78 216.6 300.57C216.861 300.381 217.121 300.181 217.392 299.981C217.528 299.876 217.663 299.771 217.809 299.645C217.955 299.529 218.101 299.414 218.237 299.288C219.508 298.216 220.801 296.891 222.073 295.304C222.218 295.126 222.354 294.947 222.5 294.758C222.636 294.579 222.781 294.39 222.917 294.201C226.034 290.007 229.015 284.143 231.444 276.103C231.579 275.651 231.715 275.188 231.85 274.726C232.517 272.393 233.143 269.881 233.706 267.19C233.82 266.654 233.935 266.108 234.039 265.551C234.154 265.004 234.258 264.437 234.362 263.869C234.675 262.167 234.967 260.391 235.238 258.541C235.321 257.942 235.415 257.332 235.498 256.712C235.603 255.882 235.707 255.041 235.811 254.19C236.02 252.424 236.218 250.595 236.384 248.714C236.384 248.714 232.027 238.015 213.588 220.832C206.905 214.616 195.48 205.009 187.653 200.337C167.232 188.077 144.166 184.891 120.575 188.514C118.011 188.913 115.468 189.386 112.945 189.954C90.8466 194.799 70.5511 205.687 54.0815 220.863C48.7967 225.74 44.0747 230.406 39.9468 234.715C26.2602 248.966 19.0156 259.182 19.0156 259.182C19.0156 259.182 19.5263 260.527 20.4646 262.818C25.0719 274.095 39.9468 308.21 53.9355 315.115Z" fill="#FF8B6A"/>
<path d="M156.983 191.333C154.88 197.61 147.077 201.925 141.164 203.562C135.556 205.115 129.616 205.246 123.989 203.748C111.315 200.372 111.001 192.458 111.001 192.458C113.141 191.761 114.184 186.255 114.673 180.331C115.291 172.862 115.051 164.734 115.051 164.734H148.709C148.709 164.734 149.696 175.048 150.766 182.99C150.988 184.59 151.541 186.125 152.408 187.454C153.174 188.654 154.179 189.705 155.397 190.495C156.31 191.091 156.983 191.333 156.983 191.333Z" fill="#FEC9AC"/>
<path opacity="0.5" d="M152.409 187.454C140.906 191.649 127.329 190.281 117.588 182.841C116.564 182.06 115.596 181.223 114.673 180.331C115.291 172.862 115.051 164.734 115.051 164.734H148.71C148.71 164.734 149.697 175.048 150.767 182.99C150.988 184.59 151.542 186.125 152.409 187.454Z" fill="#FFAB90"/>
<path d="M160.002 153.272C159.096 159.771 157.787 166.626 153.385 171.459C149.478 175.744 143.596 177.785 137.825 178.059C134.693 178.212 131.52 177.887 128.559 176.841C122.557 174.729 117.914 169.915 113.744 165.092C112.196 163.311 110.671 161.494 109.234 159.613C107.746 157.667 105.887 156.065 103.892 154.653C103.883 154.646 103.873 154.64 103.864 154.633C102.273 153.506 100.974 152.003 99.7449 150.5C98.7578 149.302 97.7608 148.033 97.509 146.519C97.2774 145.148 97.7004 143.717 98.486 142.59C98.9694 141.92 99.5535 141.34 100.218 140.853C98.9291 133.826 99.6744 126.393 102.444 119.803C106.13 111.03 113.351 103.83 122.103 100.225L154.705 95.0664C154.846 99.981 156.931 104.581 158.411 109.252C162.903 123.347 162.037 138.599 160.002 153.272Z" fill="#FEC9AC"/>
<path d="M173.188 110.769C171.881 113.827 170.241 116.811 167.812 119.074C165.383 121.336 162.067 122.79 158.787 122.368C156.062 122.007 153.67 120.429 151.142 119.31C149.466 118.552 147.197 118.788 145.163 119.447C142.943 120.192 140.613 120.566 138.283 120.354L136.236 120.18C136.544 118.688 138.64 118.626 139.811 117.656C131.551 116.774 123.006 121.97 119.924 129.752C118.801 132.612 115.349 142.855 115.349 142.855C115.349 142.855 111.934 140.518 110.442 139.933C108.457 139.163 106.2 138.603 104.092 139.138C102.44 139.549 100.911 140.742 100.442 142.395C99.6535 139.051 97.9917 136.348 96.5709 133.445C94.4392 129.089 93.7104 124.133 94.1543 119.298C94.5827 114.515 96.0286 109.649 97.3847 105.125C98.6669 100.887 99.9862 96.5853 102.403 92.8808C105.781 87.7091 111.132 84.0416 116.927 81.9656C122.71 79.8897 128.937 79.3057 135.077 79.3676C139.022 79.4174 142.993 79.7282 146.765 80.9094C150.526 82.0901 154.077 84.2158 156.481 87.3734C158.386 89.8925 159.459 92.8514 161.093 95.5407C163.485 99.4814 167.085 102.677 171.265 104.566C172.005 104.902 172.794 105.213 173.324 105.846C174.433 107.164 173.879 109.178 173.188 110.769Z" fill="#2E363A"/>
<path opacity="0.5" d="M109 152.204C109.074 152.95 108.482 153.696 107.755 153.783C107.397 153.833 107.052 153.746 106.719 153.609C105.56 153.149 104.672 152.179 103.908 151.185C102.515 149.382 101.282 147.294 101.232 145.006C101.22 144.285 101.343 143.515 101.824 142.98C102.502 142.222 103.698 142.172 104.685 142.446C106.67 142.98 108.31 144.634 108.864 146.623L109 152.204Z" fill="#FFAB90"/>
<path d="M155.816 105.101C153.363 106.642 150.181 106.107 147.383 105.374C143.018 104.231 138.591 102.702 134.116 103.273C129.677 103.82 125.571 106.568 123.315 110.446C122.76 111.416 122.304 112.448 121.638 113.343C120.01 115.518 117.261 116.587 114.573 116.787C111.873 116.985 109.197 116.413 106.559 115.841C103.969 115.294 101.392 114.735 98.8156 114.176C97.5702 113.902 96.3496 113.641 95.0796 113.579C95.7084 110.732 96.5468 107.922 97.3853 105.125C98.6675 100.887 99.9868 96.5853 102.403 92.8808C105.782 87.7091 111.133 84.0416 116.928 81.9656C122.711 79.8897 128.937 79.3057 135.077 79.3676C139.023 79.4174 142.993 79.7282 146.766 80.9094C150.527 82.0901 154.078 84.2158 156.482 87.3734C157.234 88.3683 157.863 89.4494 158.455 90.556C158.677 92.3958 159.047 94.2478 159.182 96.1003C159.441 99.4692 158.664 103.323 155.816 105.101Z" fill="#3A4146"/>
<path d="M125.636 135.038C125.505 134.96 125.485 134.669 125.692 134.185C125.902 133.711 126.353 133.036 127.215 132.411C128.72 131.436 130.659 131.129 132.388 131.591C133.398 131.918 134.032 132.422 134.376 132.808C134.719 133.205 134.787 133.49 134.684 133.607C134.45 133.886 133.666 133.339 132.027 133.036C130.66 132.676 129.191 132.91 127.999 133.674C126.529 134.471 125.951 135.235 125.636 135.038ZM146.77 130.762C146.571 130.569 147.011 129.571 148.781 128.62C150.318 127.947 152.017 127.679 153.684 127.847C155.656 128.207 156.377 129.021 156.243 129.273C156.098 129.6 155.217 129.374 153.54 129.33C152.127 129.186 150.669 129.416 149.367 129.989C147.783 130.547 147.012 131.034 146.77 130.762ZM139.876 156.142C140.002 156.028 140.418 156.363 141.197 156.911C141.585 157.172 142.09 157.48 142.683 157.606C143.248 157.73 144.053 157.623 144.469 157.158C145.22 156.475 144.681 154.416 144.494 152.814C144.23 151.137 143.88 149.473 143.453 147.83C142.547 143.929 141.97 141.997 142.299 141.867C142.569 141.754 143.683 143.5 144.882 147.451C145.566 150.076 146.022 152.617 146.3 155.19C146.341 155.647 146.367 156.141 146.275 156.676C146.189 157.207 145.944 157.786 145.509 158.216C144.412 159.176 143.184 159.069 142.344 158.793C141.486 158.473 140.973 157.973 140.613 157.576C139.916 156.751 139.762 156.243 139.876 156.142ZM142.228 165.794C142.265 165.936 141.953 166.199 141.224 166.433C140.5 166.658 139.341 166.888 137.794 166.716C135.199 166.319 132.717 165.131 130.885 163.133C129.863 161.891 129.514 160.61 129.559 159.788C129.599 158.954 129.887 158.612 130.025 158.645C130.392 158.688 130.093 160.204 131.988 162.14C133.513 163.812 135.737 164.906 138.011 165.242C140.705 165.739 142.143 165.407 142.228 165.794Z" fill="#4F2D2A"/>
<path d="M151.991 143.932C152.926 143.932 153.685 142.557 153.685 140.862C153.685 139.166 152.926 137.792 151.991 137.792C151.056 137.792 150.297 139.166 150.297 140.862C150.297 142.557 151.056 143.932 151.991 143.932Z" fill="#4F2D2A"/>
<path d="M132.131 145.62C133.066 145.62 133.824 144.246 133.824 142.55C133.824 140.855 133.066 139.48 132.131 139.48C131.195 139.48 130.437 140.855 130.437 142.55C130.437 144.246 131.195 145.62 132.131 145.62Z" fill="#4F2D2A"/>
<path d="M236.38 248.719C231.585 302.14 209.601 306.439 204.014 302.623L205.453 311.883C199.167 296.906 192.871 281.919 186.575 266.943C189.473 272.586 198.239 272.418 202.878 268.12C207.527 263.821 209.039 257.147 210.102 250.894C211.801 240.941 212.958 230.904 213.583 220.836C232.023 238.019 236.38 248.719 236.38 248.719Z" fill="#FF8B6A"/>
<path d="M201.255 281.012C199.233 277.744 197.158 274.496 195.063 271.259C193.708 269.157 192.353 267.055 190.987 264.964C190.206 266.435 189.372 267.875 188.475 269.294C188.309 269.578 188.121 269.872 187.933 270.156C178.635 284.617 164.365 295.821 148.125 301.233C129.976 307.276 109.556 306.036 92.2629 297.838C92.1148 297.768 91.9711 297.692 91.8235 297.621C82.6111 300.693 75.2848 308.047 67.8326 314.034C63.5052 317.511 59.2521 321.085 55.0432 324.713L53.632 338.606L52.1753 377.133H211.188L205.456 311.88L204.017 302.621C205.154 303.398 206.988 303.84 209.219 303.587C209.313 303.577 209.406 303.566 209.5 303.556C209.646 303.535 209.803 303.503 209.959 303.482C210.147 303.451 210.345 303.409 210.542 303.367C210.584 303.356 210.626 303.346 210.668 303.335C210.908 303.283 211.147 303.22 211.387 303.146C211.814 303.02 212.252 302.873 212.7 302.694C212.763 302.673 212.836 302.652 212.909 302.621C213.159 302.515 213.409 302.4 213.67 302.284C209.834 295.043 205.623 287.98 201.255 281.012Z" fill="#FF8B6A"/>
<path d="M62.7685 304.255C62.599 304.527 61.2807 304.121 58.9333 302.736C56.6111 301.332 53.2357 298.929 49.448 294.907C42.8504 287.509 40.0871 281.318 35.6659 270.849C31.7488 260.818 30.2426 255.667 30.8777 255.395C31.5128 255.124 34.1237 259.802 38.5705 269.607C42.962 280.001 45.595 285.829 51.7943 292.78C55.1748 296.782 58.1149 299.415 60.0483 301.21C62.0017 302.986 62.9672 303.94 62.7685 304.255Z" fill="white"/>
<path d="M152.125 204.176C152.351 204.396 151.753 205.58 149.93 207.444C148.103 209.272 144.973 211.798 140.036 213.737C131.589 216.778 121.984 216.218 113.912 212.328C109.208 210 106.18 206.816 105.201 204.178C104.185 201.509 104.86 200.058 105.118 200.112C105.527 200.1 105.599 201.405 106.868 203.301C108.119 205.21 110.807 207.538 115.262 209.452C122.603 212.988 131.329 213.496 138.987 210.737C143.563 209.238 146.69 207.285 148.748 205.971C150.801 204.629 151.858 203.912 152.125 204.176Z" fill="white"/>
<path d="M87.4756 377.132H309.529C310.54 377.132 311.359 376.306 311.359 375.287V369.829C311.359 368.81 310.54 367.984 309.529 367.984H87.4756C86.4652 367.984 85.646 368.81 85.646 369.829V375.287C85.646 376.306 86.4652 377.132 87.4756 377.132Z" fill="#2E363A"/>
<path d="M138.967 367.998H306.505L313.433 341.492L336.354 253.58C337.641 248.666 334.684 244.69 329.809 244.69H179.962C178.51 244.69 177.086 245.022 175.717 245.657C172.458 247.093 169.72 250.102 168.816 253.58L138.967 367.998Z" fill="#4A5258"/>
<path d="M138.967 367.999H306.505L313.433 341.492C308.696 342.32 303.904 342.9 299.084 343.205C268.824 345.054 237.989 334.59 214.959 314.655C194.612 297.04 180.591 272.217 175.717 245.657C172.458 247.093 169.72 250.102 168.816 253.58L138.967 367.999Z" fill="#3A4146"/>
<path d="M166.35 368.005H138.965L139.458 366.156C145.921 365.604 156.875 366.321 166.35 368.005Z" fill="#3A4146"/>
<path d="M252.412 311.472C254.719 304.455 251.832 297.177 245.965 295.216C240.098 293.256 233.472 297.356 231.166 304.374C228.859 311.391 231.745 318.669 237.612 320.63C243.479 322.59 250.105 318.49 252.412 311.472Z" fill="#3A4146"/>
<path d="M250.63 310.877C252.55 305.036 250.147 298.979 245.264 297.347C240.381 295.715 234.866 299.128 232.946 304.969C231.026 310.81 233.428 316.868 238.312 318.499C243.195 320.131 248.71 316.718 250.63 310.877Z" fill="white"/>
<path d="M130.867 373.396C130.878 378.592 100.58 383.147 79.8576 378.346C75.0111 377.213 68.4785 374.369 61.214 370.263C37.3847 356.791 5.81367 329.92 0.998972 306.761C0.288522 303.275 -0.0296775 299.992 0.00216905 296.934C0.193113 273.325 19.9077 261.82 19.9077 261.82C20.0243 262.002 20.141 262.184 20.279 262.376C20.279 262.387 20.2895 262.387 20.2895 262.398C20.3426 262.537 20.3955 262.676 20.4592 262.815C24.7966 273.411 38.18 304.173 51.3938 313.572C51.1181 313.828 50.8635 314.053 50.6409 314.277C50.5772 314.342 50.5242 314.416 50.5242 314.502C48.4351 319.185 82.9967 354.866 82.9967 354.866C82.9967 354.866 87.2174 357.411 92.9866 355.679C98.7768 353.946 109.668 350.568 111.036 355.604C112.383 360.661 87.5675 366.959 97.2286 366.018C105.246 365.259 123.041 367.258 128.937 370.937C130.146 371.674 130.867 372.508 130.867 373.396Z" fill="#FEC9AC"/>
<path opacity="0.5" d="M51.3941 313.572C51.1183 313.828 50.8638 314.053 50.6411 314.277C50.5775 314.342 50.5245 314.416 50.5245 314.502C41.3193 306.868 30.354 301.404 18.7308 298.773C12.5907 297.373 6.30173 296.774 0.00244141 296.934C0.193385 273.325 19.908 261.82 19.908 261.82C20.0246 262.002 20.1413 262.184 20.2793 262.376C20.2793 262.387 20.2897 262.387 20.2897 262.398C20.3428 262.537 20.3958 262.676 20.4595 262.815C24.7969 273.411 38.1803 304.173 51.3941 313.572Z" fill="#FFAB90"/>
<path d="M131.025 373.401C131.046 378.598 100.749 383.159 80.0082 378.352C75.1796 377.222 68.6395 374.367 61.3658 370.258C46.7168 361.979 29.1134 348.607 16.624 334.165H64.1369C73.081 344.457 83.146 354.872 83.146 354.872C83.146 354.872 87.3837 357.42 93.1498 355.673C95.2688 355.036 98.0598 354.194 100.831 353.598L98.019 364.404C95.0444 365.677 93.6999 366.376 97.3875 366.027C97.4485 366.027 97.53 366.006 97.6116 366.006C102.42 365.595 110.57 366.129 117.619 367.382C122.427 368.244 126.726 369.457 129.09 370.937C130.312 371.676 131.025 372.517 131.025 373.401Z" fill="#FEC9AC"/>
<path d="M600.5 409.085V409.938C600.5 413.284 597.806 416 594.475 416H76.2774C72.946 416 70.2523 413.284 70.2523 409.938V409.085C70.2523 405.74 67.5586 403.024 64.2402 403.024H21.4398C18.1216 403.024 15.4277 400.308 15.4277 396.962V395.532C15.4277 392.186 18.1216 389.47 21.4398 389.47H31.5509C34.8694 389.47 37.5632 386.754 37.5632 383.409C37.5632 380.05 40.2568 377.334 43.5881 377.334H574.916C578.235 377.334 580.928 380.05 580.928 383.409C580.928 385.088 580.252 386.597 579.172 387.699C578.078 388.788 576.582 389.47 574.916 389.47H571.194C567.876 389.47 565.182 392.186 565.182 395.532V396.962C565.182 400.308 567.876 403.024 571.194 403.024H594.475C597.806 403.024 600.5 405.74 600.5 409.085Z" fill="#CE704C"/>
<path d="M594.474 403.024H571.193C569.46 403.024 567.91 402.273 566.813 401.089H17.0581C18.1558 402.273 19.7059 403.024 21.4385 403.024H64.2388C67.5573 403.024 70.2509 405.74 70.2509 409.085V409.938C70.2509 413.284 72.9446 416 76.276 416H594.474C597.805 416 600.499 413.284 600.499 409.938V409.085C600.499 405.74 597.805 403.024 594.474 403.024Z" fill="#C16244"/>
<path d="M443.367 258.201C442.693 258.201 442.085 258.123 441.806 257.965V257.562C442.085 257.405 442.693 257.326 443.383 257.326C444.073 257.326 444.665 257.405 444.961 257.562V257.965C444.665 258.123 444.073 258.201 443.367 258.201Z" fill="#F3F6FD"/>
<path d="M412.862 206.495V271.226C412.862 273.935 415.041 276.131 417.728 276.131H519.489C522.176 276.131 524.355 273.935 524.355 271.226V206.495H412.862Z" fill="#F6F6FE"/>
<path d="M524.355 206.495V196.86C524.355 194.15 522.176 191.954 519.489 191.954H417.728C415.041 191.954 412.862 194.15 412.862 196.86V206.495H524.355Z" fill="#64D3FF"/>
<path d="M442.441 221.034V226.789C442.441 228.201 441.309 229.342 439.925 229.342H427.926C426.527 229.342 425.395 228.201 425.395 226.789V221.034C425.395 219.639 426.527 218.497 427.926 218.497H439.925C441.309 218.497 442.441 219.639 442.441 221.034ZM465.567 221.034V226.789C465.567 228.201 464.435 229.342 463.051 229.342H451.053C449.653 229.342 448.521 228.201 448.521 226.789V221.034C448.521 219.639 449.653 218.497 451.053 218.497H463.051C464.435 218.497 465.567 219.639 465.567 221.034ZM488.693 221.034V226.789C488.693 228.201 487.561 229.342 486.177 229.342H474.179C472.779 229.342 471.647 228.201 471.647 226.789V221.034C471.647 219.639 472.779 218.497 474.179 218.497H486.177C487.561 218.497 488.693 219.639 488.693 221.034ZM511.82 221.034V226.789C511.82 228.201 510.688 229.342 509.304 229.342H497.305C495.906 229.342 494.773 228.201 494.773 226.789V221.034C494.773 219.639 495.906 218.497 497.305 218.497H509.304C510.688 218.497 511.82 219.639 511.82 221.034Z" fill="#D1DCF8"/>
<path d="M442.442 238.427V244.182C442.442 245.593 441.31 246.735 439.926 246.735H427.928C426.528 246.735 425.396 245.593 425.396 244.182V238.427C425.396 237.031 426.528 235.89 427.928 235.89H439.926C441.31 235.89 442.442 237.031 442.442 238.427ZM465.569 238.427V244.182C465.569 245.593 464.436 246.735 463.052 246.735H451.054C449.654 246.735 448.522 245.593 448.522 244.182V238.427C448.522 237.031 449.654 235.89 451.054 235.89H463.052C464.436 235.89 465.569 237.031 465.569 238.427ZM488.695 238.427V244.182C488.695 245.593 487.563 246.735 486.179 246.735H474.18C472.781 246.735 471.649 245.593 471.649 244.182V238.427C471.649 237.031 472.781 235.89 474.18 235.89H486.179C487.563 235.89 488.695 237.031 488.695 238.427ZM511.821 238.427V244.182C511.821 245.593 510.689 246.735 509.305 246.735H497.307C495.907 246.735 494.775 245.593 494.775 244.182V238.427C494.775 237.031 495.907 235.89 497.307 235.89H509.305C510.689 235.89 511.821 237.031 511.821 238.427Z" fill="#D1DCF8"/>
<path d="M442.442 255.82V261.575C442.442 262.987 441.31 264.128 439.926 264.128H427.928C426.528 264.128 425.396 262.987 425.396 261.575V255.82C425.396 254.425 426.528 253.283 427.928 253.283H439.926C441.31 253.283 442.442 254.425 442.442 255.82ZM465.569 255.82V261.575C465.569 262.987 464.436 264.128 463.052 264.128H451.054C449.654 264.128 448.522 262.987 448.522 261.575V255.82C448.522 254.425 449.654 253.283 451.054 253.283H463.052C464.436 253.283 465.569 254.425 465.569 255.82ZM488.695 255.82V261.575C488.695 262.987 487.563 264.128 486.179 264.128H474.18C472.781 264.128 471.649 262.987 471.649 261.575V255.82C471.649 254.425 472.781 253.283 474.18 253.283H486.179C487.563 253.283 488.695 254.425 488.695 255.82ZM511.821 255.82V261.575C511.821 262.987 510.689 264.128 509.305 264.128H497.307C495.907 264.128 494.775 262.987 494.775 261.575V255.82C494.775 254.425 495.907 253.283 497.307 253.283H509.305C510.689 253.283 511.821 254.425 511.821 255.82Z" fill="#D1DCF8"/>
<path d="M436.22 191.935V199.136C436.22 201.394 438.027 203.233 440.268 203.233C442.508 203.233 444.332 201.394 444.332 199.136V191.935H436.22Z" fill="#42C1F4"/>
<path d="M443.112 186.868V197.539C443.112 199.797 441.288 201.636 439.048 201.636C436.808 201.636 435 199.797 435 197.539V186.868C435 184.609 436.808 182.771 439.048 182.771C440.161 182.771 441.18 183.238 441.922 183.97C442.663 184.718 443.112 185.731 443.112 186.868Z" fill="#E4ECF9"/>
<path d="M494.106 191.935V199.136C494.106 201.394 495.914 203.233 498.155 203.233C500.395 203.233 502.218 201.394 502.218 199.136V191.935H494.106Z" fill="#42C1F4"/>
<path d="M500.998 186.868V197.539C500.998 199.797 499.175 201.636 496.935 201.636C494.694 201.636 492.887 199.797 492.887 197.539V186.868C492.887 184.609 494.694 182.771 496.935 182.771C498.047 182.771 499.067 183.238 499.809 183.97C500.55 184.718 500.998 185.731 500.998 186.868Z" fill="#E4ECF9"/>
<path d="M529.308 97.8323C556.103 97.8323 577.824 75.9318 577.824 48.9162C577.824 21.9005 556.103 0 529.308 0C502.513 0 480.792 21.9005 480.792 48.9162C480.792 75.9318 502.513 97.8323 529.308 97.8323Z" fill="#D1DCF8"/>
<path d="M529.307 92.3926C553.122 92.3926 572.428 72.9275 572.428 48.916C572.428 24.9046 553.122 5.43945 529.307 5.43945C505.492 5.43945 486.186 24.9046 486.186 48.916C486.186 72.9275 505.492 92.3926 529.307 92.3926Z" fill="#F3F6FD"/>
<path d="M548.168 49.9485H523.523C522.974 49.9485 522.531 49.5012 522.531 48.9484C522.531 48.3956 522.974 47.9482 523.523 47.9482H548.168C548.717 47.9482 549.16 48.3956 549.16 48.9484C549.16 49.5012 548.717 49.9485 548.168 49.9485Z" fill="#D1DCF8"/>
<path d="M529.297 55.1607C529.024 55.1607 528.801 54.937 528.801 54.6606V13.92C528.801 13.6436 529.024 13.4199 529.297 13.4199C529.57 13.4199 529.793 13.6436 529.793 13.92V54.6606C529.793 54.937 529.57 55.1607 529.297 55.1607Z" fill="#FE4C40"/>
<path d="M513.322 69.148C513.212 69.148 513.099 69.1109 513.008 69.0347C512.795 68.8599 512.764 68.5454 512.939 68.3315L532.673 44.0051C532.845 43.7912 533.161 43.759 533.37 43.9348C533.583 44.1096 533.614 44.4241 533.44 44.638L513.706 68.9644C513.609 69.0855 513.466 69.148 513.322 69.148Z" fill="#D1DCF8"/>
<path d="M529.297 50.6375C530.202 50.6375 530.935 49.8984 530.935 48.9867C530.935 48.075 530.202 47.3359 529.297 47.3359C528.393 47.3359 527.66 48.075 527.66 48.9867C527.66 49.8984 528.393 50.6375 529.297 50.6375Z" fill="white"/>
<path d="M572.422 48.9159C572.422 72.9391 553.119 92.4016 529.312 92.4016C512.39 92.4016 497.749 82.5802 490.686 68.2986C498.602 77.9197 510.545 84.0604 523.916 84.0604C547.723 84.0604 567.046 64.5779 567.046 40.5748C567.046 33.6539 565.439 27.093 562.563 21.2725C568.732 28.7935 572.422 38.4146 572.422 48.9159Z" fill="#E4ECF9"/>
<path d="M470.736 187.494C471.412 187.483 472.033 188.743 472.378 191.288C472.44 193.448 472.518 195.61 472.671 197.733C472.565 200.295 472.244 201.349 471.649 201.637C470.968 201.955 469.971 200.536 469.525 197.97C469.365 195.752 469.287 193.565 469.224 191.376C469.453 188.785 470.032 187.505 470.736 187.494ZM470.95 159.107C471.623 159.127 472.209 160.414 472.443 162.981L472.328 169.492C472.004 172.047 471.373 173.311 470.683 173.305C469.992 173.3 469.424 172.024 469.173 169.448L469.288 162.907C469.629 160.34 470.243 159.086 470.95 159.107ZM454.535 148.029C454.535 147.35 455.794 146.737 458.341 146.456H464.813C467.358 146.737 468.617 147.35 468.617 148.046C468.617 148.741 467.358 149.338 464.813 149.636H458.341C455.794 149.338 454.535 148.741 454.535 148.029ZM426.389 148.029C426.389 147.35 427.648 146.737 430.193 146.456H436.663C439.206 146.737 440.465 147.35 440.465 148.046C440.465 148.741 439.206 149.338 436.663 149.636H430.193C427.648 149.338 426.389 148.741 426.389 148.029ZM398.224 148.029C398.224 147.35 399.484 146.737 402.031 146.456H408.504C411.049 146.737 412.309 147.35 412.309 148.046C412.309 148.741 411.049 149.338 408.504 149.636H402.031C399.484 149.338 398.224 148.741 398.224 148.029ZM396.28 121.642C396.953 121.642 397.562 122.911 397.841 125.477V132C397.562 134.563 396.953 135.832 396.263 135.832C395.573 135.832 394.982 134.563 394.686 132V125.477C394.982 122.911 395.573 121.642 396.28 121.642ZM396.28 93.2617C396.953 93.2617 397.562 94.5308 397.841 97.0968V103.619C397.562 106.183 396.953 107.452 396.263 107.452C395.573 107.452 394.982 106.183 394.686 103.619V97.0968C394.982 94.5308 395.573 93.2617 396.28 93.2617ZM396.28 64.8812C396.953 64.8812 397.562 66.1503 397.841 68.7163V75.2386C397.562 77.8023 396.953 79.0714 396.263 79.0714C395.573 79.0714 394.982 77.8023 394.686 75.2386V68.7163C394.982 66.1503 395.573 64.8812 396.28 64.8812ZM379.005 53.884C379.005 53.2049 380.264 52.5917 382.809 52.3105H389.278C391.821 52.5917 393.079 53.2049 393.079 53.9007C393.079 54.5971 391.821 55.1935 389.278 55.4915H382.809C380.264 55.1935 379.005 54.5971 379.005 53.884ZM350.857 53.884C350.857 53.2049 352.115 52.5917 354.661 52.3105H361.129C363.672 52.5917 364.931 53.2049 364.931 53.9007C364.931 54.5971 363.672 55.1935 361.129 55.4915H354.661C352.115 55.1935 350.857 54.5971 350.857 53.884ZM327.994 53.884C327.994 53.2049 328.779 52.5917 330.369 52.3105H334.409C335.997 52.5917 336.783 53.2049 336.783 53.9007C336.783 54.5971 335.997 55.1935 334.409 55.4915H330.369C328.779 55.1935 327.994 54.5971 327.994 53.884Z" fill="#BBCAEA"/>
<path d="M297.315 115.65L295.273 106.507L286.067 105.933C284.958 103.804 283.588 101.86 282.011 100.128L284.567 91.1929L276.707 86.1859L269.796 92.3442C267.574 91.6486 265.245 91.2345 262.862 91.1359L258.402 82.9961L249.327 85.0564L248.764 94.3366C246.653 95.4554 244.724 96.8361 243.006 98.4262L234.145 95.8487L229.171 103.77L235.279 110.737C234.59 112.984 234.18 115.332 234.082 117.735L226.009 122.232L228.051 131.375L237.256 131.949C238.366 134.078 239.735 136.022 241.311 137.748L238.755 146.683L246.617 151.696L253.528 145.538C255.756 146.232 258.085 146.646 260.468 146.744L264.922 154.886L273.997 152.825L274.566 143.544C276.677 142.425 278.606 141.044 280.317 139.456L289.179 142.033L294.151 134.106L288.043 127.138C288.733 124.898 289.144 122.55 289.242 120.147L297.315 115.65ZM266.044 138.562C255.326 140.995 244.68 134.207 242.266 123.4C239.853 112.594 246.585 101.86 257.304 99.4267C268.022 96.9934 278.668 103.781 281.081 114.588C283.495 125.395 276.762 136.128 266.044 138.562Z" fill="#E2E8ED"/>
<path d="M261.675 133.868C269.822 133.868 276.427 127.208 276.427 118.994C276.427 110.779 269.822 104.12 261.675 104.12C253.528 104.12 246.923 110.779 246.923 118.994C246.923 127.208 253.528 133.868 261.675 133.868Z" fill="#E2E8ED"/>
<path d="M370.636 43.4427L366.313 30.9232L353.286 31.6034C351.388 28.7915 349.155 26.2806 346.664 24.1012L348.836 11.1324L336.994 5.36582L328.261 15.1362C325.028 14.5175 321.689 14.3118 318.325 14.5581L310.764 3.83984L298.339 8.20094L299.022 21.333C296.233 23.2463 293.743 25.4979 291.581 28.01L278.718 25.8191L272.987 37.7534L282.678 46.5586C282.067 49.8268 281.863 53.1931 282.107 56.5853L271.477 64.2084L275.799 76.7279L288.827 76.0475C290.724 78.8594 292.958 81.3703 295.446 83.5413L293.274 96.5099L305.119 102.285L313.852 92.5149C317.093 93.1304 320.432 93.3363 323.796 93.0898L331.349 103.811L343.774 99.4499L343.1 86.3148C345.888 84.4018 348.379 82.1499 350.532 79.6411L363.394 81.8318L369.122 69.8888L359.432 61.0839C360.046 57.824 360.25 54.4577 360.005 51.0656L370.636 43.4427ZM330.332 80.6904C315.656 85.8411 299.618 78.0212 294.509 63.2248C289.4 48.4283 297.156 32.2574 311.832 27.1067C326.507 21.956 342.546 29.7757 347.654 44.5721C352.763 59.3686 345.007 75.5397 330.332 80.6904Z" fill="#E2E8ED"/>
<path d="M321.083 74.9345C332.606 74.9345 341.948 65.5159 341.948 53.8974C341.948 42.279 332.606 32.8604 321.083 32.8604C309.559 32.8604 300.218 42.279 300.218 53.8974C300.218 65.5159 309.559 74.9345 321.083 74.9345Z" fill="#E2E8ED"/>
<path d="M409.635 174.895C432.016 168.062 444.667 144.23 437.89 121.664C431.113 99.0978 407.476 86.3432 385.095 93.1756C362.713 100.008 350.063 123.84 356.839 146.406C363.616 168.973 387.253 181.727 409.635 174.895Z" fill="#FE4C40"/>
<path d="M409.826 162.249C425.281 155.309 432.23 137.052 425.347 121.47C418.464 105.888 400.356 98.8822 384.902 105.822C369.447 112.761 362.498 131.018 369.381 146.6C376.264 162.182 394.372 169.188 409.826 162.249Z" fill="#E4ECF9"/>
<path d="M376.323 134.036C376.323 145.752 385.744 155.25 397.364 155.25C408.985 155.25 418.405 145.752 418.405 134.036C418.405 122.319 408.985 112.821 397.364 112.821C385.744 112.821 376.323 122.319 376.323 134.036Z" fill="#FE4C40"/>
<path d="M386.34 134.036C386.34 140.174 391.275 145.149 397.362 145.149C403.449 145.149 408.384 140.174 408.384 134.036C408.384 127.898 403.449 122.923 397.362 122.923C391.275 122.923 386.34 127.898 386.34 134.036Z" fill="#E4ECF9"/>
<path d="M395.656 135.755H402.578L395.656 128.778V135.755Z" fill="#22252D"/>
<path d="M440.537 90.5068H448.456V88.4942H442.533V82.5225H440.537V90.5068Z" fill="#2E363A"/>
<path d="M444.161 86.8535H452.08V84.8385H446.157V78.8691H444.161V86.8535Z" fill="#2E363A"/>
<path d="M444.784 84.8051L396.894 133.088L398.306 134.511L446.195 86.2283L444.784 84.8051Z" fill="#2E363A"/>
</svg>
